<svg id="Group_191" data-name="Group 191" xmlns="http://www.w3.org/2000/svg" width="30.111" height="32.546" viewBox="0 0 30.111 32.546">
  <g id="Group_5" data-name="Group 5">
    <path id="Path_6" data-name="Path 6" d="M189.3,116.729c3.678-1.887,7.573-3.779,10.552-6.714a11.942,11.942,0,0,0,3.266-5.386,11.055,11.055,0,0,0,.285-4.446,7.238,7.238,0,0,0-.452-1.57,11.283,11.283,0,0,0-3.87-4.775,6.8,6.8,0,0,1,2.115,1.553,34.775,34.775,0,0,1,4.947,6.294c2.7,4.775.7,10.375-3.166,13.778-5.369,4.738-12.9,6.682-18.632,10.92l-1.894-2.255-5.18.324C180.435,120.982,185.429,118.714,189.3,116.729Z" transform="translate(-177.267 -93.837)" fill="#f7d859"/>
  </g>
</svg>
