<svg id="Group_190" data-name="Group 190" xmlns="http://www.w3.org/2000/svg" width="62.878" height="31.524" viewBox="0 0 62.878 31.524">
  <g id="Group_3" data-name="Group 3">
    <path id="Path_1" data-name="Path 1" d="M22.453,24.274a17.31,17.31,0,0,0-2.461-4.552,14.278,14.278,0,0,0-1.833-1.907C13.253,13.619,6.206,12.966,0,14.758v3.98a21.542,21.542,0,0,1,8.79.717,16.5,16.5,0,0,1,6.068,3.558L16.3,24.487c2.233,2.594,3.563,5.821,2.839,9.028a7.416,7.416,0,0,1-1.759,3.45c.12-.118.238-.24.348-.368a34.638,34.638,0,0,0,4.262-5.646A8.384,8.384,0,0,0,22.453,24.274Z" transform="translate(0 -13.821)" fill="#f1a742"/>
    <path id="Path_2" data-name="Path 2" d="M24.629,29.741a6.463,6.463,0,0,0-.91-4.731,23.413,23.413,0,0,1,2.417.113s1.271-4.756,1.222-4.837a6.546,6.546,0,0,1,.918,4.721h0A10.978,10.978,0,0,1,24.629,29.741Z" transform="translate(34.482 -4.423)" fill="#f1a742"/>
    <path id="Path_3" data-name="Path 3" d="M10.127,16.1c7.349-1.085,12.745,6.147,16.934,11.047,2.613,3.055,5.278,6.314,8.721,8.473a11.6,11.6,0,0,0,5.83,1.88,10.782,10.782,0,0,0,4.267-.729,7.106,7.106,0,0,0,1.386-.78,10.978,10.978,0,0,0,3.646-4.734h0a6.64,6.64,0,0,1-.994,2.351A34.068,34.068,0,0,1,45.075,39.7c-3.911,3.622-9.656,2.989-13.744.1-7.03-4.967-10.765-14.021-18.62-17.906a10.6,10.6,0,0,0-2.1-.771,17.31,17.31,0,0,0-2.461-4.552A11.68,11.68,0,0,1,10.127,16.1Z" transform="translate(11.845 -10.671)" fill="#f1a742"/>
    <path id="Path_4" data-name="Path 4" d="M7.66,19.843a6.533,6.533,0,0,0-.476,2.64,6.111,6.111,0,0,0,1.568,3.546,4.468,4.468,0,0,0,5.268,1.08,7.416,7.416,0,0,1-1.759,3.45,6.229,6.229,0,0,1-2.307,1.477c-.039.015-.076.027-.115.039a4.282,4.282,0,0,1-3.2-.186,5.854,5.854,0,0,1-3.116-5.18c-.007-2.368,1.355-4.186,2.719-5.975.658-.861,1.323-1.7,2.01-2.505A2.264,2.264,0,0,0,7.66,19.843Z" transform="translate(5.115 -7.415)" fill="#f1a742"/>
    <path id="Path_5" data-name="Path 5" d="M5.21,20.8A2.264,2.264,0,0,1,5.8,19.189c.483-.564.977-1.112,1.5-1.622l1.438,1.475A12.8,12.8,0,0,0,5.21,20.8Z" transform="translate(7.565 -8.376)" fill="#f1a742"/>
  </g>
</svg>
