<svg id="calendar" xmlns="http://www.w3.org/2000/svg" width="325.891" height="325.891" viewBox="0 0 325.891 325.891">
  <g id="Group_3" data-name="Group 3">
    <g id="Group_2" data-name="Group 2">
      <circle id="Ellipse_1" data-name="Ellipse 1" cx="12.5" cy="12.5" r="12.5" transform="translate(233 121)" fill="#a060f4"/>
      <path id="Path_11" data-name="Path 11" d="M274.97,25.46H258.421V12.73a12.73,12.73,0,1,0-25.46,0V25.46H175.039V12.73a12.73,12.73,0,1,0-25.46,0V25.46H92.293V12.73a12.73,12.73,0,0,0-25.46,0V25.46H50.92A50.978,50.978,0,0,0,0,76.381V274.97a50.978,50.978,0,0,0,50.92,50.92h97.385a12.73,12.73,0,0,0,0-25.46H50.92a25.489,25.489,0,0,1-25.46-25.46V76.381A25.489,25.489,0,0,1,50.92,50.92H66.833v12.73a12.73,12.73,0,0,0,25.46,0V50.92h57.285v12.73a12.73,12.73,0,1,0,25.46,0V50.92h57.922v12.73a12.73,12.73,0,1,0,25.46,0V50.92H274.97a25.489,25.489,0,0,1,25.46,25.46v72.562a12.73,12.73,0,0,0,25.46,0V76.381A50.978,50.978,0,0,0,274.97,25.46Z" fill="#a060f4"/>
      <path id="Path_12" data-name="Path 12" d="M347.017,270a77.017,77.017,0,1,0,77.017,77.017A77.1,77.1,0,0,0,347.017,270Zm0,128.574a51.557,51.557,0,1,1,51.557-51.557A51.615,51.615,0,0,1,347.017,398.574Z" transform="translate(-98.144 -98.144)" fill="#a060f4"/>
      <path id="Path_13" data-name="Path 13" d="M402.189,356.1H396.46V342.73a12.73,12.73,0,0,0-25.46,0v26.1a12.73,12.73,0,0,0,12.73,12.73h18.459a12.73,12.73,0,0,0,0-25.46Z" transform="translate(-134.856 -119.953)" fill="#a060f4"/>
      <circle id="Ellipse_2" data-name="Ellipse 2" cx="12.5" cy="12.5" r="12.5" transform="translate(178 121)" fill="#a060f4"/>
      <circle id="Ellipse_3" data-name="Ellipse 3" cx="13" cy="13" r="13" transform="translate(122 176)" fill="#a060f4"/>
      <circle id="Ellipse_4" data-name="Ellipse 4" cx="12.5" cy="12.5" r="12.5" transform="translate(67 121)" fill="#a060f4"/>
      <ellipse id="Ellipse_5" data-name="Ellipse 5" cx="12.5" cy="13" rx="12.5" ry="13" transform="translate(67 176)" fill="#a060f4"/>
      <circle id="Ellipse_6" data-name="Ellipse 6" cx="12.5" cy="12.5" r="12.5" transform="translate(67 232)" fill="#a060f4"/>
      <ellipse id="Ellipse_7" data-name="Ellipse 7" cx="13" cy="12.5" rx="13" ry="12.5" transform="translate(122 232)" fill="#a060f4"/>
      <ellipse id="Ellipse_8" data-name="Ellipse 8" cx="13" cy="12.5" rx="13" ry="12.5" transform="translate(122 121)" fill="#a060f4"/>
    </g>
  </g>
</svg>
