<svg xmlns="http://www.w3.org/2000/svg" width="187.385" height="359.88" viewBox="0 0 187.385 359.88">
  <g id="dollar" transform="translate(-122.611)">
    <path id="Path_10" data-name="Path 10" d="M307.363,219.1a72.586,72.586,0,0,0-6.324-15.358A51.963,51.963,0,0,0,290.4,190.983a127.075,127.075,0,0,0-12.452-10.038,121.384,121.384,0,0,0-15.164-8.537q-9.633-4.722-15.256-7.031t-16.273-6.325q-9.438-3.613-14.059-5.521t-12.149-5.423a70.814,70.814,0,0,1-11.246-6.224,88.377,88.377,0,0,1-7.932-6.625,22.61,22.61,0,0,1-5.926-8.334,26.577,26.577,0,0,1-1.706-9.641q0-13.653,12.048-22.291t31.131-8.634a66.928,66.928,0,0,1,17.17,2.31,89.8,89.8,0,0,1,14.959,5.22,103.907,103.907,0,0,1,11.752,6.427q5.524,3.516,7.833,5.321c1.54,1.206,2.515,2.008,2.913,2.411a6.4,6.4,0,0,0,5.421,1.406,5.482,5.482,0,0,0,4.622-3.213l16.27-29.321q2.409-4.015-1-7.632c-.8-.8-1.8-1.74-3.018-2.812s-3.813-3.013-7.833-5.826a96.934,96.934,0,0,0-12.749-7.531,128.961,128.961,0,0,0-17.476-6.726,111.4,111.4,0,0,0-22.192-4.619V6.426A6.18,6.18,0,0,0,231.657,0H204.543a6.172,6.172,0,0,0-4.518,1.908,6.177,6.177,0,0,0-1.908,4.519V42.576Q166.586,48.6,146.9,69.486t-19.682,48.6a69.739,69.739,0,0,0,1.709,15.662A80.189,80.189,0,0,0,133.15,147.1a49.15,49.15,0,0,0,7.129,11.65,124.749,124.749,0,0,0,8.736,9.839,70.924,70.924,0,0,0,10.744,8.533q6.629,4.421,11.349,7.132t12.551,6.22q7.832,3.517,12.353,5.324t12.353,5.017q10.844,4.217,16.066,6.528t13.259,6.427q8.031,4.113,11.747,7.53a37.745,37.745,0,0,1,6.728,8.435,20.345,20.345,0,0,1,3.016,10.645q0,15.866-12.353,24.5t-28.618,8.637a70.165,70.165,0,0,1-14.859-1.6q-26.108-5.228-48.8-25.107l-.4-.4a4.98,4.98,0,0,0-4.819-1.8,6.239,6.239,0,0,0-4.619,2.413l-20.686,27.11q-3.013,4.016.4,8.233,1.006,1.206,3.514,3.616a116.223,116.223,0,0,0,9.34,7.537,123.241,123.241,0,0,0,35.247,18.577,126.791,126.791,0,0,0,25.606,6.22v35.145a6.514,6.514,0,0,0,6.426,6.428h27.114a6.177,6.177,0,0,0,6.424-6.427V318.308q31.938-5.221,51.916-27.414T310,237.977A66.021,66.021,0,0,0,307.363,219.1Z" fill="#fda006"/>
  </g>
</svg>
