<svg xmlns="http://www.w3.org/2000/svg" width="379.098" height="361.215" viewBox="0 0 379.098 361.215">
  <g id="invoice" transform="translate(3 2.61)">
    <path id="Path_3" data-name="Path 3" d="M370.415,62.9c.162.012.325.024.49.024a6.049,6.049,0,0,0,.835-.062,13.509,13.509,0,0,1,13.235,13.489,6.045,6.045,0,1,0,12.09,0,25.631,25.631,0,0,0-20.115-25V45.549a6.045,6.045,0,1,0-12.089,0v6.083a25.592,25.592,0,0,0,6.611,50.315,13.5,13.5,0,1,1-13.5,13.506,6.045,6.045,0,1,0-12.09,0,25.635,25.635,0,0,0,18.981,24.722V146.8a6.045,6.045,0,1,0,12.089,0v-6.346a25.591,25.591,0,0,0-5.478-50.589,13.5,13.5,0,0,1-1.057-26.956Zm0,0" transform="translate(-84.534 -9.56)" fill="#f1536e" stroke="#f1536e" stroke-width="6"/>
    <path id="Path_4" data-name="Path 4" d="M287.282.391c-37.186,0-68.921,24.265-80.81,56.755H56.442A6.321,6.321,0,0,0,50.4,63.462L48.969,275.513H6.2A5.945,5.945,0,0,0,0,281.274v26.909a47.483,47.483,0,0,0,45.336,47.29v.133H231.967v-.177c1.511.056,2.134.177,3.09.177h.13a47.48,47.48,0,0,0,47.4-47.478V172.073c1.511.083,3.111.127,4.675.127A85.9,85.9,0,0,0,287.282.39ZM47.635,343.516H47.6a35.555,35.555,0,0,1-35.507-35.395V287.6h175.3v20.434a47.42,47.42,0,0,0,14,33.6c.635.635,1.423,1.125,2.087,1.88ZM270.5,308.121a35.391,35.391,0,0,1-35.321,35.395h-.115a35.653,35.653,0,0,1-35.59-35.475V281.274a5.579,5.579,0,0,0-5.77-5.761H61.058L62.445,69.235h140.67a90.826,90.826,0,0,0-1.656,16.788,85.239,85.239,0,0,0,7.3,34.592H151.662a6.045,6.045,0,0,0,0,12.09h63.653A85.3,85.3,0,0,0,270.5,170.561Zm16.779-148.008A73.732,73.732,0,1,1,361.014,86.38,73.728,73.728,0,0,1,287.282,160.113Zm0,0" fill="#f1536e" stroke="#f1536e" stroke-width="6"/>
    <path id="Path_5" data-name="Path 5" d="M143.109,212.746c-10.67,0-19.347,8.4-19.347,18.733s8.678,18.733,19.347,18.733,19.35-8.4,19.35-18.733S153.779,212.746,143.109,212.746Zm0,25.377c-4.005,0-7.258-2.981-7.258-6.644s3.256-6.644,7.258-6.644,7.261,2.981,7.261,6.644S147.111,238.123,143.109,238.123Zm0,0" transform="translate(-30.248 -51.901)" fill="#f1536e" stroke="#f1536e" stroke-width="6"/>
    <path id="Path_6" data-name="Path 6" d="M192.719,235.549a6.043,6.043,0,0,0,6.045,6.045h80.589a6.045,6.045,0,1,0,0-12.09H198.764A6.043,6.043,0,0,0,192.719,235.549Zm0,0" transform="translate(-47.102 -55.997)" fill="#f1536e" stroke="#f1536e" stroke-width="6"/>
    <path id="Path_7" data-name="Path 7" d="M143.109,143.2c-10.67,0-19.347,8.406-19.347,18.736s8.678,18.733,19.347,18.733,19.35-8.4,19.35-18.733S153.779,143.2,143.109,143.2Zm0,25.38c-4.005,0-7.258-2.981-7.258-6.644s3.256-6.647,7.258-6.647,7.261,2.981,7.261,6.647-3.258,6.647-7.261,6.647Zm0,0" transform="translate(-30.248 -34.904)" fill="#f1536e" stroke="#f1536e" stroke-width="6"/>
    <path id="Path_8" data-name="Path 8" d="M143.109,282.281c-10.67,0-19.347,8.4-19.347,18.733s8.678,18.733,19.347,18.733,19.35-8.4,19.35-18.733S153.779,282.281,143.109,282.281Zm0,25.377c-4.005,0-7.258-2.978-7.258-6.644s3.256-6.644,7.258-6.644,7.261,2.981,7.261,6.644S147.111,307.658,143.109,307.658Zm0,0" transform="translate(-30.248 -68.896)" fill="#f1536e" stroke="#f1536e" stroke-width="6"/>
    <path id="Path_9" data-name="Path 9" d="M279.352,299.5H198.764a6.045,6.045,0,1,0,0,12.09h80.589a6.045,6.045,0,1,0,0-12.09Zm0,0" transform="translate(-47.102 -73.105)" fill="#f1536e" stroke="#f1536e" stroke-width="6"/>
  </g>
</svg>
